<?xml version="1.0" encoding="utf-8"?>
<!-- Generator: Adobe Illustrator 15.0.2, SVG Export Plug-In . SVG Version: 6.00 Build 0)  -->
<!DOCTYPE svg PUBLIC "-//W3C//DTD SVG 1.1//EN" "http://www.w3.org/Graphics/SVG/1.1/DTD/svg11.dtd">
<svg version="1.1" id="Layer_1" xmlns="http://www.w3.org/2000/svg" xmlns:xlink="http://www.w3.org/1999/xlink" x="0px" y="0px"
	 width="430px" height="60px" viewBox="0 0 430 60" enable-background="new 0 0 430 60" xml:space="preserve">
<rect y="1" fill="none" width="418" height="44"/>
<g enable-background="new    ">
	<path fill="#E30D18" d="M10.007,16.121c-0.216-0.469-0.612-1.548-1.26-1.548c-1.116,0-0.756,4.751-0.756,5.938
		c0,3.852,2.304,2.052,2.304,3.996c0,2.052-3.852,2.123-5.255,2.123c-1.26,0-4.536-0.107-4.536-1.979
		c0-2.052,2.16-0.359,2.448-3.312c0.288-3.023,0.612-6.371,0.612-11.591c0-2.159-0.144-3.275-0.54-4.104
		C2.664,4.89,0.612,4.638,0.612,3.162c0-2.052,3.348-2.556,6.228-2.556c4.211,0,4.139,0.72,5.219,2.556
		c1.26,2.124,3.491,8.027,5.075,8.387c1.116,0.252,2.592-4.104,3.888-6.479c1.835-3.384,1.872-4.464,6.623-4.464
		c1.584,0,5.184,0.108,5.184,2.376c0,1.439-1.62,1.728-1.98,2.951c-0.288,1.008-0.54,5.256-0.54,6.875c0,0.54,0.216,4.5,0.36,7.848
		c0.108,2.628,2.268,2.052,2.268,3.671c0,2.412-4.932,2.304-6.515,2.304c-1.476,0-6.407,0.145-6.407-2.159
		c0-1.26,1.62-1.476,1.872-2.628c0.144-0.611,0.864-6.803-0.396-6.803c-1.116,0-2.268,3.167-3.131,5.003
		c-0.792,1.656-2.088,5.76-3.24,5.615c-0.576-0.071-0.864,0-3.023-4.859L10.007,16.121z"/>
	<path fill="#E30D18" d="M44.422,19.576c0,4.247,2.124,2.699,2.124,4.607c0,2.447-4.572,2.447-6.191,2.447
		c-6.191,0-6.443-1.403-6.443-2.268c0-1.296,1.476-1.367,1.908-2.483c0.468-1.26,0.54-6.479,0.144-7.811
		c-0.324-1.261-2.16-0.864-2.16-2.484c0-2.556,9.143-3.636,9.503-3.636c1.08,0,1.116,0.828,1.116,1.584V19.576z M37.295,6.798
		c-1.512,0-3.132-0.684-3.132-2.447c0-2.376,4.751-3.348,6.587-3.348c1.44,0,3.492,0.468,3.492,2.268
		C44.242,6.078,39.347,6.798,37.295,6.798z"/>
	<path fill="#E30D18" d="M58.21,19.792c0,0.648-0.036,1.836,0.144,2.412c0.396,1.296,2.016,0.684,2.016,2.195
		c0,2.412-4.392,2.231-5.939,2.231c-1.62,0-6.659,0.181-6.659-2.375c0-1.26,1.547-0.792,1.979-2.124
		c0.468-1.476,0.468-5.976,0.468-7.739c0-1.403,0.072-4.104-0.252-5.723c-0.54-2.664-2.664-1.729-2.664-3.78
		c0-3.131,9.359-3.887,9.863-3.887c1.224,0,1.512,0.791,1.512,1.871c0,0.828-0.468,4.788-0.468,9.935V19.792z"/>
	<path fill="#E30D18" d="M72.034,19.792c0,0.648-0.036,1.836,0.144,2.412c0.396,1.296,2.016,0.684,2.016,2.195
		c0,2.412-4.392,2.231-5.939,2.231c-1.62,0-6.659,0.181-6.659-2.375c0-1.26,1.547-0.792,1.979-2.124
		c0.468-1.476,0.468-5.976,0.468-7.739c0-1.403,0.072-4.104-0.252-5.723c-0.54-2.664-2.664-1.729-2.664-3.78
		c0-3.131,9.359-3.887,9.863-3.887c1.224,0,1.512,0.791,1.512,1.871c0,0.828-0.468,4.788-0.468,9.935V19.792z"/>
	<path fill="#E30D18" d="M84.094,17.956c-0.396,0-0.972-0.107-0.972,0.504c0,1.8,2.34,3.312,4.032,3.312
		c2.7,0,4.031-1.619,4.787-1.619c0.756,0,1.404,1.115,1.404,1.8c0,2.771-5.075,4.787-8.315,4.787c-6.479,0-9.827-4.68-9.827-9.323
		c0-5.543,4.715-9.574,10.115-9.574c6.119,0,8.819,4.715,8.819,7.415c0,2.376-1.08,2.699-2.231,2.699H84.094z M87.225,13.421
		c0-1.296-0.792-2.304-2.124-2.304c-1.188,0-2.16,1.224-2.16,2.376c0,1.296,1.224,1.008,2.16,1.008
		C86.073,14.501,87.225,14.717,87.225,13.421z"/>
	<path fill="#E30D18" d="M105.369,20.224c0,3.492,1.224,2.88,1.224,4.248c0,2.231-4.788,2.159-6.263,2.159
		c-1.44,0-5.112,0-5.112-2.159c0-1.728,1.656-0.18,1.764-3.708l0.144-5.399c0.072-2.663-2.124-1.799-2.124-3.707
		s8.279-3.708,8.999-3.708c0.792,0,1.296,0.685,1.296,1.404c0,0.216-0.036,0.432-0.036,0.647c0,0.433,0.18,0.937,0.72,0.937
		c0.576,0,0.9-0.756,1.62-1.512c0.72-0.721,1.8-1.477,3.852-1.477c7.451,0,6.191,7.308,6.551,12.779
		c0.18,2.843,1.656,2.195,1.656,3.743c0,0.647,0.144,2.159-6.624,2.159c-1.296,0-4.751,0.072-4.751-1.943
		c0-1.296,1.188-0.684,1.368-3.023c0.18-2.556,1.188-8.315-2.196-8.315c-2.304,0-2.088,2.484-2.088,4.104V20.224z"/>
	<path fill="#E30D18" d="M130.749,20.224c0,3.492,1.224,2.88,1.224,4.248c0,2.231-4.788,2.159-6.263,2.159
		c-1.44,0-5.112,0-5.112-2.159c0-1.728,1.656-0.18,1.764-3.708l0.144-5.399c0.072-2.663-2.124-1.799-2.124-3.707
		s8.279-3.708,8.999-3.708c0.792,0,1.296,0.685,1.296,1.404c0,0.216-0.036,0.432-0.036,0.647c0,0.433,0.18,0.937,0.72,0.937
		c0.576,0,0.9-0.756,1.62-1.512c0.72-0.721,1.8-1.477,3.852-1.477c7.451,0,6.191,7.308,6.551,12.779
		c0.18,2.843,1.656,2.195,1.656,3.743c0,0.647,0.144,2.159-6.624,2.159c-1.296,0-4.751,0.072-4.751-1.943
		c0-1.296,1.188-0.684,1.368-3.023c0.18-2.556,1.188-8.315-2.196-8.315c-2.304,0-2.088,2.484-2.088,4.104V20.224z"/>
	<path fill="#E30D18" d="M156.38,19.576c0,4.247,2.124,2.699,2.124,4.607c0,2.447-4.572,2.447-6.191,2.447
		c-6.191,0-6.443-1.403-6.443-2.268c0-1.296,1.476-1.367,1.908-2.483c0.468-1.26,0.54-6.479,0.144-7.811
		c-0.324-1.261-2.16-0.864-2.16-2.484c0-2.556,9.143-3.636,9.503-3.636c1.08,0,1.116,0.828,1.116,1.584V19.576z M149.253,6.798
		c-1.512,0-3.132-0.684-3.132-2.447c0-2.376,4.751-3.348,6.587-3.348c1.44,0,3.492,0.468,3.492,2.268
		C156.2,6.078,151.305,6.798,149.253,6.798z"/>
	<path fill="#E30D18" d="M177.691,17.633c0,6.335,2.16,2.879,2.16,4.823c0,2.052-2.808,4.283-5.435,4.283
		c-2.844,0-2.916-1.836-3.815-1.836c-0.432,0-0.9,0.468-1.692,0.9c-0.792,0.468-1.872,0.936-3.528,0.936
		c-2.987,0-5.975-1.584-5.975-5.147c0-2.556,2.448-5.724,8.783-5.724c1.116,0,1.62,0.072,1.62-1.224
		c0-1.188-0.036-3.671-1.692-3.671c-2.16,0-2.375,3.887-5.579,3.887c-1.152,0-2.016-0.827-2.016-1.979
		c0-3.06,6.083-5.039,9.503-5.039c2.052,0,7.667,0.792,7.667,6.191V17.633z M166.893,20.8c0,0.937,0.504,1.944,1.547,1.944
		c1.368,0,1.476-1.477,1.476-2.556c0-0.792,0.036-1.692-0.972-1.692C167.72,18.496,166.893,19.648,166.893,20.8z"/>
	<path fill="#E30D18" d="M191.624,19.792c0,0.648-0.036,1.836,0.144,2.412c0.396,1.296,2.016,0.684,2.016,2.195
		c0,2.412-4.392,2.231-5.939,2.231c-1.62,0-6.659,0.181-6.659-2.375c0-1.26,1.547-0.792,1.979-2.124
		c0.468-1.476,0.468-5.976,0.468-7.739c0-1.403,0.072-4.104-0.252-5.723c-0.54-2.664-2.664-1.729-2.664-3.78
		c0-3.131,9.359-3.887,9.863-3.887c1.224,0,1.512,0.791,1.512,1.871c0,0.828-0.468,4.788-0.468,9.935V19.792z"/>
	<path fill="#E30D18" d="M215.526,16.121c-0.216-0.469-0.611-1.548-1.259-1.548c-1.116,0-0.756,4.751-0.756,5.938
		c0,3.852,2.303,2.052,2.303,3.996c0,2.052-3.851,2.123-5.255,2.123c-1.26,0-4.536-0.107-4.536-1.979
		c0-2.052,2.16-0.359,2.448-3.312c0.288-3.023,0.612-6.371,0.612-11.591c0-2.159-0.144-3.275-0.54-4.104
		c-0.36-0.756-2.412-1.008-2.412-2.483c0-2.052,3.348-2.556,6.228-2.556c4.211,0,4.14,0.72,5.219,2.556
		c1.26,2.124,3.492,8.027,5.076,8.387c1.115,0.252,2.591-4.104,3.887-6.479c1.836-3.384,1.872-4.464,6.623-4.464
		c1.584,0,5.184,0.108,5.184,2.376c0,1.439-1.619,1.728-1.979,2.951c-0.288,1.008-0.54,5.256-0.54,6.875
		c0,0.54,0.216,4.5,0.36,7.848c0.107,2.628,2.268,2.052,2.268,3.671c0,2.412-4.932,2.304-6.516,2.304
		c-1.476,0-6.407,0.145-6.407-2.159c0-1.26,1.62-1.476,1.872-2.628c0.144-0.611,0.864-6.803-0.396-6.803
		c-1.116,0-2.269,3.167-3.132,5.003c-0.792,1.656-2.088,5.76-3.24,5.615c-0.575-0.071-0.863,0-3.023-4.859L215.526,16.121z"/>
	<path fill="#E30D18" d="M246.307,13.241c1.116-2.484,2.592-5.651,2.592-8.495c0-2.483,1.152-4.355,4.355-4.355
		c3.132,0,5.111,3.203,6.516,5.579c0.611,1.044,6.047,12.059,7.343,15.011c1.188,2.735,3.132,1.079,3.132,3.131
		c0,2.628-5.111,2.52-6.911,2.52c-5.147,0-8.243-0.035-8.243-2.268c0-1.728,2.195-1.079,2.195-2.34c0-1.619-0.899-1.764-6.694-1.764
		c-1.872,0-2.988,0.072-2.988,1.836c0,1.404,2.304,0.468,2.304,2.34c0,2.16-3.888,2.195-5.327,2.195
		c-5.147,0-5.615-0.972-5.615-2.123c0-1.692,1.943-1.188,2.987-2.484c0.792-0.972,1.548-2.699,2.088-3.851L246.307,13.241z
		 M253.866,15.833c0.359,0,1.439,0.071,1.439-0.469c0-0.539-1.044-2.411-1.332-2.915c-0.323-0.576-0.936-1.908-1.728-1.908
		c-0.864,0-1.476,2.16-1.62,2.556c-0.144,0.396-0.756,1.8-0.756,2.232c0,0.611,0.9,0.504,1.296,0.504H253.866z"/>
	<path fill="#E30D18" d="M273.99,6.906c0.072-3.708-2.627-1.908-2.627-4.248c0-1.655,2.087-1.907,3.348-1.907h11.734
		c10.007,0,13.282,6.19,13.282,12.67c0,6.695-3.924,12.994-13.03,12.994c-1.548,0-2.844-0.036-3.96-0.107
		c-1.115-0.036-2.088-0.072-3.096-0.072s-2.052,0.036-3.06,0.072c-1.008,0.071-2.016,0.107-3.06,0.107
		c-1.224,0-2.771-0.611-2.771-2.052c0-2.592,2.844,0.288,2.952-4.967L273.99,6.906z M282.63,20.08c0,1.836,0.288,2.592,2.231,2.592
		c4.535,0,5.327-4.644,5.327-8.243c0-8.423-3.168-9.755-5.939-9.755c-1.512,0-1.619,0.612-1.619,1.979V20.08z"/>
	<path fill="#E30D18" d="M315.93,26.235c-1.151,0-2.987,0.072-2.987-1.584c0-2.231,2.808-0.359,2.916-4.535
		c0.071-2.628,0.071-4.932,0.071-7.056c0-2.159-0.18-4.175-0.252-6.19c-0.071-3.024-3.239-1.44-3.239-3.492
		c0-2.627,5.651-2.771,7.415-2.771c7.199,0.18,7.56,1.224,7.56,2.448c0,2.087-2.844,0.504-2.844,3.887v11.447
		c0,2.592,0.432,3.852,2.987,3.852c6.119,0,4.031-5.004,6.335-5.004c1.62,0,2.231,1.728,2.231,3.096
		c0,2.808-2.016,6.407-3.671,6.407c-0.648,0-1.152-0.144-1.8-0.252c-0.684-0.144-1.476-0.252-2.7-0.252H315.93z"/>
	<path fill="#E30D18" d="M339.365,11.837c0-4.571-0.359-5.615-0.756-6.119c-0.827-1.044-2.231-1.151-2.231-2.52
		c0-2.592,7.343-2.592,8.063-2.592c2.159,0,6.587,0.072,6.587,2.52c0,1.296-1.368,1.225-2.196,2.16
		c-0.684,0.792-0.72,4.031-0.72,6.551V15.4c0,6.407,0.433,6.264,1.152,6.695c0.899,0.54,1.764,0.72,1.764,1.836
		c0,1.08-0.324,2.699-8.207,2.699c-1.512,0-6.048-0.035-6.048-2.339c0-1.152,1.225-1.332,1.8-2.017
		c0.433-0.504,0.792-1.835,0.792-6.875V11.837z"/>
	<path fill="#E30D18" d="M374.031,11.117c-0.324,0.288-0.647,0.504-0.647,0.972s0.396,0.612,0.756,0.792
		c1.476,0.576,4.031,2.483,4.031,5.508c0,3.6-2.412,8.026-9.646,8.026c-1.225,0-2.34-0.036-3.42-0.107
		c-1.08-0.036-2.16-0.072-3.275-0.072c-1.224,0-2.484,0.036-3.708,0.072c-1.224,0.071-2.447,0.107-3.707,0.107
		c-1.116,0-2.376-0.647-2.376-1.907c0-2.232,2.34,0.036,2.556-5.939l0.396-10.367c0.216-5.435-2.88-2.951-2.88-5.435
		c0-1.368,1.476-2.016,2.592-2.016c1.331,0,2.663,0.071,3.995,0.107c1.332,0.072,2.664,0.145,3.995,0.145
		c0.864,0,1.692-0.072,2.521-0.145c0.827-0.036,1.691-0.107,2.52-0.107c6.587,0,8.278,3.131,8.278,5.902
		C376.011,8.31,375.327,10.073,374.031,11.117z M363.557,9.533c0,1.404-0.072,2.088,1.044,2.088c2.16,0,2.664-1.512,2.664-3.491
		c0-1.62-0.54-3.636-2.521-3.636c-1.331,0-1.188,1.08-1.188,2.124V9.533z M363.557,18.316c0,4.176,0.684,4.283,1.8,4.283
		c2.052,0,2.771-1.403,2.771-3.275c0-2.195-0.647-4.14-3.167-4.14c-1.116,0-1.368,0.576-1.404,1.332V18.316z"/>
	<path fill="#E30D18" d="M380.117,8.886c0-3.744,3.6-8.387,10.583-8.387c2.304,0,4.896,1.043,5.436,1.043
		c0.504,0,1.008-0.432,1.764-0.432c1.224,0,3.959,2.664,3.959,5.688c0,1.224-0.791,2.447-2.123,2.447
		c-2.412,0-3.815-4.104-7.56-4.104c-1.115,0-2.304,0.504-2.304,1.8c0,2.844,4.932,2.088,9.107,4.859
		c2.231,1.477,3.348,3.276,3.348,5.976c0,4.212-3.456,8.963-11.843,8.963c-2.376,0-6.443-0.612-8.495-1.728
		c-1.728-0.972-2.556-4.788-2.556-6.623c0-0.973,0.432-1.944,1.512-1.944c2.556,0,2.124,5.724,8.747,5.724
		c0.792,0,2.771-0.396,2.771-1.764c0-2.592-4.932-1.944-8.927-5.147C381.558,13.673,380.117,11.478,380.117,8.886z"/>
</g>
</svg>
