<?xml version="1.0" encoding="utf-8"?>
<!-- Generator: Adobe Illustrator 15.0.2, SVG Export Plug-In . SVG Version: 6.00 Build 0)  -->
<!DOCTYPE svg PUBLIC "-//W3C//DTD SVG 1.1//EN" "http://www.w3.org/Graphics/SVG/1.1/DTD/svg11.dtd">
<svg version="1.1" id="Layer_1" xmlns="http://www.w3.org/2000/svg" xmlns:xlink="http://www.w3.org/1999/xlink" x="0px" y="0px"
	 width="100px" height="100px" viewBox="0 0 100 100" enable-background="new 0 0 100 100" xml:space="preserve">
<path fill="#E30613" d="M21.8,88.5c-0.2-0.3-0.7-0.8-1.3-1.1C20.4,87.3,20.2,87.3,20.1,87.1L19.9,86.9c0,0-0.2-0.801-0.1-0.801
	c0.1-0.1-0.1-0.5-0.1-0.699c0-0.101,0-0.101,0-0.2c0-0.101,0-0.2,0-0.3l0.1-0.2c0-0.2,0-0.2,0-0.4c0-0.1,0-0.2,0-0.3
	c0,0,0-0.4,0.1-0.5c0,0,0-0.1,0-0.2c0-0.2,0.1-0.3,0.1-0.5c0-0.1,0-0.2,0.1-0.399c0-0.101,0.1-0.301,0.2-0.4c0,0-0.1,0,0-0.1
	c0,0,0,0,0-0.101c0-0.1,0.1-0.399,0.1-0.6c0-0.101,0-0.2,0.1-0.4c0-0.1,0-0.1,0-0.2c0,0,0-0.399,0.1-0.5c0-0.1,0-0.5,0.1-0.6
	c0,0,0-0.1,0-0.2c0.1-0.7,0.2-1.399,0.3-2.1c0-0.101,0-0.101,0-0.2s0-0.2,0-0.3V76.6c0-0.1,0.1-0.199,0.1-0.3c0,0-0.1,0,0-0.1
	c0-0.101,0-0.2,0-0.4c0-0.1,0.1-0.399,0.1-0.6c0-0.101,0-0.2,0.1-0.4c0.1-0.2,0.1-0.5,0.1-0.8c0,0,0-0.4,0.1-0.5
	c0-0.1,0-0.5,0.1-0.6c0,0,0-0.101,0-0.2c0-0.2,0.1-0.4,0.2-0.601c0-0.1,0-0.199,0.1-0.399c0-0.101,0-0.101,0-0.2s0.1-0.4,0.1-0.6
	c0,0,0-0.4,0.1-0.5c0-0.101,0-0.2,0-0.4c0,0,0-0.4,0.1-0.5c0-0.1,0-0.2,0-0.4c0-0.1,0.1-0.399,0.1-0.6c0-0.1,0.1-0.5,0.2-0.7
	c0.3-0.5,0.9-1.1,1.3-1.7c0.6-0.8,1.1-1.899,1.6-2.6c0.3-0.4,0.6-0.7,1-1c0.3-0.3,0.6-0.8,0.9-1.1h0.1c0.1-0.2,0.2-0.2,0.4-0.4
	c0.3-0.3,0.4-0.5,0.7-0.8c0.1-0.101,0.1-0.2,0.1-0.2c0.1,0,0.2-0.2,0.3-0.4c0.1-0.1,0.2-0.1,0.2-0.199c0.1-0.101,0.1-0.2,0.2-0.4
	c0.1-0.2,0.3-0.4,0.4-0.7c0.1-0.3,0.3-0.6,0.5-1c0,0-0.1-0.1,0-0.1c0.1-0.101,0.2-0.2,0.3-0.4c0-0.1,0.1-0.2,0.3-0.5
	c0.3-0.399,0.6-0.899,1-1.2c0.2-0.199,0.5-0.399,0.7-0.6c0.3-0.4,0.6-0.9,1-1.3c0.4-0.4,0.7-0.8,1-1.3s0.5-1,0.8-1.5
	c0.4-0.7,1.1-1.5,1.5-2.2c0.2-0.3,0.5-0.5,0.8-0.8c0.1-0.2,0.3-0.5,0.5-0.7c0.9-1.2,1.7-2.5,2.7-3.7c0-0.1,0.1-0.1,0.2-0.2
	c0.1-0.1,0.4-0.4,0.4-0.7V42c0.1-0.1,0.1-0.1,0.2-0.2c0.6-0.6,1.2-1.8,1.9-2.6c0.2-0.3,0.5-0.6,0.8-0.8c0.5-0.5,0.9-1.2,1.4-1.8
	c0.3-0.3,0.7-0.6,0.9-1.1c0.1-0.1,0.1-0.2,0.1-0.3c0.1-0.2,0.3-0.4,0.5-0.6c0.3-0.5,0.6-0.9,0.9-1.3c0-0.1,0.2-0.1,0.2-0.2
	s0-0.2,0.1-0.3c0.3-0.5,0.5-0.8,0.9-1.2h0.1c0.4-0.6,0.9-1.4,1.3-2.1c0.3-0.5,0.7-0.9,1-1.4c1.1-1.6,2.3-3.4,3.399-4.9
	c0.101-0.1,0.2-0.3,0.301-0.4c0.8-0.9,1.8-2.4,2.8-3.3c0.2-0.1,0.399-0.3,0.5-0.4c0.3-0.4,0.5-0.9,0.8-1.3c0.2-0.2,0.4-0.4,0.6-0.6
	c0.2-0.2,0.4-0.3,0.5-0.5c0.301-0.4,0.5-1,0.801-1.4c0.199-0.2,0.6-0.5,1-0.7c0.3-0.2,0.6-0.4,0.899-0.6c0.101-0.1,0.3-0.2,0.4-0.3
	c0.1-0.1,0.1-0.2,0.2-0.2c0.1,0,0.1-0.1,0.199-0.2c0.101,0,0.101,0,0.101,0c0.2-0.1,0.3-0.4,0.399-0.5H64.7c0,0,0.1-0.1,0.2-0.1
	c0.1-0.1,0.399-0.1,0.5-0.3c0.1-0.1,0.399-0.2,0.5-0.2c0.3-0.1,0.6-0.1,1-0.2c0.199,0,0.399-0.1,0.699-0.1c0.101,0,0-0.1,0.101,0
	c0.1,0.1,0.2-0.1,0.2,0L68,12c0,0,0.1-0.1,0.2-0.1l0.1,0.1c0.101,0,0.2-0.1,0.3-0.1L68.7,12c0.2,0,0.2,0,0.399,0
	c0.101,0,0.2,0,0.301,0c0.1,0,0.199,0,0.3,0l0.2,0.1V12l0.1,0.1c0.1,0,0.1,0,0.2,0h0.1c0.101,0,0.2,0.1,0.3,0.1
	c0,0,0.101-0.1,0.2-0.1c0.101,0,0.2,0.1,0.3,0.1c0,0,0-0.1,0.101,0c0.1,0.1,0.2-0.1,0.2,0c0.199,0,0.3,0.1,0.6,0.1
	c0.1,0,0.3,0.1,0.5,0.1c0.2,0.1,0.7,0.1,1,0.3c0.5,0.2,0.9,0.5,1.4,0.7c0.199,0.1,0.8,0.4,1.199,0.7c0.2,0.2,0.4,0.4,0.601,0.7
	c0.2,0.2,0.5,0.4,0.7,0.7c0.199,0.2,0.3,0.5,0.5,0.7c0.3,0.4,0.6,0.6,0.8,1c0,0.1,0,0.2,0,0.2l0.1,0.1c0,0-0.1,0.1,0,0.1
	C78.9,17.7,79,17.8,79,18c0,0.1,0,0.2,0,0.2l0.1,0.1c0,0.1,0.101,0.3,0.2,0.4c0,0.1,0,0.1,0,0.2S79.4,19,79.4,19.1s0,0.2,0,0.2
	c0,0.1,0.1,0.1,0.1,0.2s0,0.2,0,0.2s0.1,0.1,0.1,0.2C79.7,20.4,79.7,21,79.7,21.7c0,0.1,0,0.1,0,0.2c0,0.2,0,0.4,0,0.6
	c0,0.1,0,0.2,0,0.2c0,0.1-0.101,0.1-0.101,0.2s0,0.2,0,0.2l-0.1,0.1c0,0.1-0.1,0.3-0.2,0.6c-0.1,0.2-0.1,0.3-0.1,0.5
	c-0.2,0.4-0.4,0.7-0.601,1c0,0.1,0,0.1-0.1,0.2c-0.1,0.2-0.2,0.3-0.2,0.5v0.1c-0.1,0.1-0.2,0.3-0.2,0.5c0,0.1-0.1,0.2-0.199,0.4
	L77.8,27.1c0,0.2-0.1,0.1-0.2,0.3C77.4,27.7,77.2,28.1,76.9,28.5c-0.2,0.2-0.4,0.3-0.5,0.5c-0.2,0.3-0.301,0.5-0.601,0.8
	c-0.1,0-0.1,0.1-0.2,0.2h-0.1c-0.2,0.2-0.3,0.4-0.5,0.4c-0.1,0-0.1,0.1-0.2,0.2c0,0-0.3,0.2-0.399,0.4c-0.7,0.8-1.101,1.8-1.7,2.7
	H72.6c-0.199,0.2-0.1,0.3-0.3,0.6c-0.3,0.4-0.6,0.8-0.899,1.3c-0.301,0.4-0.5,0.9-0.9,1.3c-0.5,0.6-1.1,1.4-1.6,2.2
	c-0.2,0.2-0.301,0.4-0.601,0.7c-0.3,0.5-0.7,1-1.1,1.6c-0.4,0.7-0.9,1.4-1.5,2.2c-0.2,0.2-0.4,0.5-0.601,0.7c-0.5,0.7-1,1.5-1.6,2.2
	c-0.2,0.2-0.4,0.4-0.6,0.7c-0.101,0.2-0.2,0.4-0.4,0.6h-0.1c-0.7,1-1.5,2-2.2,3s-1.5,1.9-2.101,2.9c-0.699,1-1.399,2-2.1,3
	S54.5,58.6,53.9,59.6C53.1,60.8,52.5,62.2,51.6,63.4C51.2,64,50.7,64.5,50.3,65.1c-1.3,1.7-2.5,3.9-3.8,5.7c-0.2,0.3-0.6,0.7-0.7,1
	c-0.1,0.3-0.4,0.4-0.6,0.7c-0.2,0.3-0.3,0.6-0.5,0.9c-0.1,0.1-0.2,0.199-0.3,0.399c-0.5,0.7-0.7,1.5-1.2,2.2s-1.4,1.6-1.9,2.6
	c-0.2,0.301-0.2,0.7-0.4,0.9c-0.1,0.2-0.4,0.3-0.7,0.4c-0.1,0-0.2,0-0.2,0L39.9,80c-0.1,0-0.1,0-0.2,0l-0.1,0.1
	c-0.1,0-0.3,0-0.4,0.101c-0.1,0.1-0.5,0.1-0.7,0.2c-0.3,0.1-0.5,0.3-0.8,0.5C37.6,81,37.4,81,37.3,81.1
	c-0.2,0.101-0.5,0.4-0.8,0.601h-0.1c-0.1,0.1-0.1,0.2-0.2,0.2c0,0-0.1-0.101-0.1,0C36,82.1,35.8,82,35.6,82.1L35.5,82.2
	c-0.1,0-0.1,0-0.2,0h-0.2c-0.1,0.1-0.1,0.2-0.2,0.2h-0.1c-0.1,0.1-0.3,0.1-0.4,0.199c0,0.101-0.2,0.101-0.3,0.2L33.9,83
	c-0.1,0-0.5,0.2-0.6,0.4c-0.3,0.3-0.7,0.699-1.1,1h-0.1c-0.1,0.1-0.2,0.1-0.3,0.199c0,0.101-0.2,0.101-0.3,0.2
	c-0.1,0-0.2,0.101-0.3,0.101L31,85.1c-0.4,0-0.9,0.301-1.3,0.601c-0.1,0-0.1,0.1-0.2,0.1S29.3,85.9,29.2,85.9h-0.1
	C29,86,29,86.1,28.9,86.1h-0.1c0.3-0.1,0.2-0.1,0.1,0c0,0-0.1,0.101-0.2,0.101c-0.3,0.2-0.7,0.399-1.1,0.6c0,0-0.1-0.1-0.1,0
	c-0.1,0.101-0.5,0.4-0.7,0.5c-0.2,0.101-0.4,0.3-0.7,0.4l-0.2,0.2c0,0-0.1-0.101-0.1,0L25.7,88c0,0-0.1-0.1-0.1,0l-0.1,0.1h-0.2
	L25.2,88.2c-0.1,0-0.2,0-0.4,0.1c-0.2,0.101-0.4,0.2-0.5,0.2c-0.1,0-0.2,0-0.3,0s-0.2,0.1-0.4,0.1c-0.1,0-0.1,0-0.2-0.1
	c-0.1,0-0.1,0-0.1,0c-0.2,0-0.2-0.2-0.4-0.2c-0.1,0-0.2,0-0.4,0c-0.1,0-0.2,0-0.2,0C22.1,88.5,22,88.4,21.8,88.5z M75.1,23.4
	c0.101-0.2,0.2-0.3,0.2-0.5v-0.2c0-0.1,0.101-0.2,0.101-0.2c0-0.2,0-0.3,0-0.4s0-0.2,0.1-0.2c0-0.1,0-0.2,0.1-0.2l0.101-0.1v-0.2
	c0-0.1,0.1-0.2,0.1-0.2c0.101-0.3,0.2-0.5,0.101-0.6l0.1-0.1c0,0-0.1-0.1-0.1-0.2c0-0.1,0.1-0.2,0.1-0.2c0-0.2-0.1-0.3-0.1-0.4
	c0-0.4,0-0.9-0.101-1c-0.1-0.1,0-0.1,0-0.1c-0.1-0.2-0.3-0.5-0.3-0.6c0,0-0.1-0.2-0.2-0.2c-0.1-0.2-0.2-0.3-0.399-0.4
	c-0.2-0.2-0.5-0.6-0.5-0.7L74.3,16.6c-0.399-0.4-0.7-0.6-1.2-0.7c-0.199-0.1-0.399-0.1-0.6-0.2c-0.3-0.1-0.8,0-1-0.2
	c-0.1,0-0.1,0-0.1,0c-0.301,0-0.7-0.1-0.9,0l-0.1-0.1c-0.101,0-0.2,0.1-0.2,0c-0.101,0-0.2-0.1-0.3-0.1h-0.2c-0.5,0-0.8,0.2-1.2,0.4
	c-0.1,0.1-0.3,0.2-0.3,0.2C68.1,15.9,68,16,67.9,16C67.8,16.1,67.6,16.1,67.6,16.2c-0.1,0.1-0.1,0-0.1,0c-0.3,0.2-0.6,0.6-1,0.8
	h-0.1C66.3,17.1,66.1,17.1,66.1,17.2c-0.1,0.2-0.5,0.2-0.6,0.5c0.2,0.5,0.8,0.7,1.2,1c0.5,0.3,1,0.5,1.5,0.9
	c0.3,0.2,0.5,0.5,0.7,0.7c0.699,0.6,1.6,1,2.3,1.5c1,0.7,1.7,1.6,2.7,2.3c0.3,0.2,0.6,0.5,1,0.5C74.9,24.2,75,23.8,75.1,23.4z
	 M62.8,20.4c0,0.1-0.1,0-0.2,0.1c-1,0.9-1.899,2.9-2.699,4c-0.101,0.1-0.2,0.2-0.2,0.2c-0.2,0.3-0.4,0.6-0.5,0.8
	C59.1,25.6,59,25.7,59,25.7c-0.2,0.3-0.4,0.6-0.5,0.8c-0.1,0.1-0.2,0.2-0.2,0.2c-0.2,0.4-0.399,0.8-0.6,1.1
	C57.6,27.9,57.6,27.9,57.5,28s-0.1,0.2-0.2,0.3c-1.7,2.4-3.2,5.1-4.899,7.3C52.3,35.8,52.2,36,52,36.1c-0.1,0.2-0.3,0.3-0.4,0.5
	C51.3,37,51.2,37.4,50.9,37.8C50.8,38,50.7,38,50.6,38.2c-0.1,0.2-0.2,0.3-0.3,0.5c-0.3,0.3-0.7,0.8-0.8,0.9s-0.1,0.2-0.2,0.3
	c-0.4,0.4-0.8,0.8-1,1.1c-0.3,0.4-0.6,0.9-0.8,1.2c-0.1,0.1-0.2,0.2-0.3,0.4c-0.1,0.1-0.1,0.3-0.2,0.4s-0.2,0.2-0.3,0.3
	c-0.2,0.3-0.3,0.6-0.5,0.8c-0.1,0.1-0.2,0.2-0.2,0.2c-0.1,0.1-0.2,0.3-0.3,0.4c-0.1,0.1-0.1,0-0.2,0.1c-0.1,0.1-0.1,0.1-0.1,0.2
	c-0.1,0.1-0.2,0.2-0.3,0.3c-0.2,0.2-0.2,0.5-0.4,0.7c-0.1,0.2-0.4,0.4-0.5,0.6c-0.1,0.1-0.1,0.2-0.2,0.3c0,0-0.1,0-0.2,0.1h0.1
	l-0.1,0.1c-0.4,0.5-0.7,1-1,1.4c-0.1,0.1-0.2,0.2-0.2,0.3c-0.2,0.4-0.2,0.4-0.4,0.6c-0.1,0.1-0.2,0.3-0.3,0.4c-1.6,1.9-3,4-4.6,6
	c-0.7,0.9-1.4,1.8-2,2.7c-0.7,1-1.3,2-2,2.9C32.7,62.3,32,63.1,31.2,63.9c-0.2,0.199-0.3,0.3-0.4,0.5c0,0.1-0.1,0-0.1,0
	C30.5,64.6,30.2,65,30.1,65S30,65.1,30,65.2c-0.3,0.399-0.6,0.7-0.6,1.2c0.2,0.3,0.6,0.399,0.9,0.6c0.6,0.3,1.1,0.6,1.6,0.8
	c0.6,0.3,1,0.601,1.5,0.601c0.2-0.2,0.4-0.301,0.5-0.5C34,67.8,34,67.7,34,67.6c0.3-0.699,0.9-1.3,1.3-1.899
	c0.1-0.2,0.2-0.5,0.3-0.7c0.4-0.9,1.1-1.7,1.7-2.5c0.4-0.6,0.8-1.3,1.2-1.9c0.3-0.3,0.6-0.5,0.8-0.8c0.3-0.399,0.8-0.899,1-1.2
	c0.3-0.3,0.4-0.6,0.6-0.899H41l0.1-0.101c0.7-1,1.4-1.899,2.1-2.899c0.3-0.4,0.8-0.9,1-1.2c0.1-0.1,0.1-0.2,0.2-0.3
	c0.1-0.2,0.3-0.3,0.4-0.5c0.1-0.101,0.1-0.2,0.2-0.4c0.4-0.7,0.8-1.3,1.2-2c0.2-0.3,0.3-0.5,0.4-0.8c0.3-0.4,0.7-0.8,1-1.2
	c0.2-0.2,0.3-0.5,0.5-0.7c0-0.1,0.1,0,0.2-0.1c0.2-0.2,0.2-0.4,0.3-0.6c0.1-0.1,0.2-0.1,0.2-0.2c0.7-0.8,1.3-1.9,1.8-2.7
	c0.801-1.2,1.801-2.6,2.601-3.6c0.3-0.4,0.6-0.8,0.8-1c0.2-0.2,0.2-0.3,0.3-0.4l0.101-0.1c0.199-0.2,0.3-0.3,0.399-0.5
	c0.7-0.9,1.101-1.9,1.8-2.8c0.4-0.6,0.9-1.1,1.301-1.7c0.3-0.5,0.6-1,0.899-1.5c0.4-0.6,1-1.4,1.3-1.8c0.7-0.9,1.2-1.7,1.9-2.6
	c0.7-1,1.4-1.9,2.1-2.9c0.4-0.5,0.9-1.3,1-1.7c0.2-0.6,0.801-0.9,0.801-1.4C65.6,21.6,65,21.4,64.6,21c-0.5-0.3-0.899-0.7-1.399-1
	C63,20.3,62.9,20.3,62.8,20.4z M69.2,25.2C69.1,25.3,69.1,25.4,69,25.5c0,0-0.1,0-0.2,0.1c-0.1,0.1-0.1,0.3-0.2,0.4
	C68.4,26.2,68.2,26.5,68,26.8c-0.1,0.2-0.2,0.4-0.3,0.6v0.1c-0.101,0.2-0.2,0.3-0.3,0.4c-0.101,0-0.101,0.3-0.101,0.3
	c-0.3,0.5-0.7,1-1.1,1.5c-0.7,1-1.4,2-2.101,3c-0.5,0.8-1.1,1.4-1.5,2.1v0.1C62.4,35.2,62.2,35.3,62,35.6c-0.2,0.3-0.3,0.5-0.4,0.8
	c-0.5,0.9-1.1,1.5-1.6,2.3c-0.3,0.5-0.6,1-1,1.6c-0.3,0.5-0.7,1.1-1.1,1.6c-0.4,0.6-1,1.1-1.4,1.7c-0.9,1.3-1.9,2.5-2.7,3.8
	c-0.5,0.7-0.8,1.4-1.3,2.1c-0.7,1-1.5,1.9-2.1,2.9C50,53,49.5,53.9,49.2,54.3c-0.4,0.8-0.8,1.3-1.3,1.9c-0.3,0.5-0.7,1-1,1.3
	c-0.1,0.2-0.2,0.3-0.3,0.5c-0.1,0.1-0.1,0-0.2,0.1c-0.1,0.101-0.1,0.2-0.2,0.301c-0.3,0.3-0.4,0.6-0.6,0.899
	c-0.1,0.2-0.3,0.5-0.4,0.7c-0.3,0.5-0.9,1.1-1.2,1.4c-0.4,0.399-0.6,1-0.9,1.399c-0.1,0.2-0.4,0.3-0.5,0.5
	c-0.2,0.2-0.3,0.4-0.5,0.601C42,64,42,64,41.9,64.1c-0.7,0.801-1.1,1.601-1.6,2.5c-0.2,0.301-0.3,0.5-0.5,0.7
	c-0.1,0.101-0.1,0.2-0.1,0.3C39.5,67.9,39.3,67.9,39.2,68.2c-0.1,0.1-0.1,0.3-0.2,0.399c-0.1,0.2-0.4,0.4-0.5,0.601
	s-0.2,0.1-0.2,0.3l-0.1,0.1c-0.2,0.4-0.4,0.601-0.4,1c0.3,0.4,1.2,0.801,1.5,0.9c0.1,0,0.1,0.1,0.2,0.1c0.4,0.2,0.6,0.7,1,0.601
	c0.5-0.5,0.6-1.3,1-1.9c0.1-0.1,0.3-0.3,0.4-0.399c0.4-0.4,0.8-0.9,1.1-1.4c0.1-0.2,0.3-0.4,0.4-0.7c0.1-0.2,0.2-0.5,0.3-0.6
	c0.2-0.3,0.5-0.4,0.7-0.7c0.2-0.3,0.3-0.6,0.5-0.8C45,65.6,45,65.6,45.1,65.5c0.3-0.3,0.6-0.6,0.8-0.9c0.3-0.5,0.5-1,0.8-1.5
	c0.3-0.5,0.7-1,1-1.399c1.1-1.4,2-3,3-4.601c0.7-1,1.399-2,2.1-3c0.7-1.1,1.4-2.1,2.101-3c0.199-0.3,0.399-0.5,0.5-0.6
	c0.6-0.7,1.3-1.8,1.8-2.5c0.7-0.8,1.399-2.2,2-2.7c0.1,0,0.1-0.1,0.1-0.2c0.2-0.3,0.4-0.5,0.601-0.7c0.1-0.1,0.199-0.3,0.3-0.4
	c0.899-1.1,1.899-2.5,2.7-3.5c0.399-0.5,0.699-1,1-1.5c0.899-1.6,2-2.8,3-4c0.399-0.5,0.8-1,1.199-1.5c0.301-0.4,0.5-0.9,0.801-1.3
	c0.3-0.4,0.6-0.8,0.899-1.2s0.5-0.9,0.8-1.4c0.5-0.7,1.101-1.3,1.4-2.1c-0.1-0.3-0.4-0.3-0.6-0.5c-0.101-0.1,0-0.1-0.101-0.2
	c-0.1-0.1-0.1-0.1-0.2-0.1c-0.3-0.3-0.6-0.5-0.899-0.8c-0.2-0.2-0.5-0.5-0.8-0.6C69.4,25.1,69.3,25.1,69.2,25.2z M37.1,74.9
	c-0.2-0.101-0.3-0.101-0.4-0.2c-0.2-0.101-0.2-0.3-0.4-0.2c-0.1,0-0.4-0.2-0.4-0.3C35.7,74.1,35.6,74.1,35.4,74
	c-0.2-0.1-0.4-0.3-0.6-0.5c-0.1-0.1-0.3-0.1-0.4-0.2c-0.2-0.1-0.3-0.2-0.5-0.3c-0.3-0.1-0.6-0.1-0.8-0.2c-0.4-0.2-0.8-0.5-1.2-0.7
	c-0.3-0.199-0.8-0.5-1.1-0.6h-0.1c-0.4-0.2-0.8-0.5-1.3-0.7c-0.4-0.3-0.9-0.5-1.3-0.7c-0.5-0.3-0.9-0.699-1.5-0.8
	c-0.2,0.2-0.3,0.601-0.3,0.7s0,0.1,0,0.2l-0.1,0.1c-0.1,0.5-0.1,1-0.2,1.5c0,0.2-0.2,0.4-0.2,0.601c0,0,0.1,0.199,0,0.199
	c0,0.101-0.1,0.101-0.1,0.2c0,0,0.1,0.2,0,0.2c0,0.2-0.1,0.4-0.1,0.5l-0.1,0.1c0,0.101,0,0.2,0,0.301L25.4,74.1
	c0,0.101-0.1,0.2-0.1,0.301c0,0,0.1,0.199,0,0.199L25.2,74.7c0,0.1,0,0.1,0,0.1c-0.1,0.4-0.1,0.7-0.1,1.101c0,0.3-0.1,0.5-0.2,0.699
	c0,0.101,0.1,0.2,0,0.2c0,0.101-0.1,0.3-0.1,0.4c0,0.2,0,0.399-0.1,0.5c0,0.1,0,0.1,0,0.1c0,0.3,0,0.5,0,0.7
	c0.4,0.4,0.9,0.9,1.4,1.3c0.5,0.4,0.9,0.9,1.6,1.101c0.7-0.101,1.2-0.801,1.8-0.801l0.1-0.1c0,0,0.1,0,0.2,0c0.1,0,0.3-0.3,0.4-0.4
	h0.1l0.1-0.1h0.1l0.1-0.1h0.1l0.1-0.101h0.1l0.1-0.1h0.1l0.1-0.101h0.1l0.1-0.1c0,0,0.1,0,0.2,0l0.2-0.2c0.1-0.1,0.2-0.1,0.3-0.1
	c0.4-0.2,0.7-0.3,1-0.5c0.3-0.2,0.8-0.4,1-0.601c0.1-0.1,0.2-0.1,0.3-0.199c0.1-0.101,0.1,0,0.1,0c0.3-0.101,0.4-0.301,0.7-0.301
	l0.1-0.1h0.1l0.1-0.1h0.1l0.1-0.101c0,0,0.1,0,0.2,0C36,77.1,36,77,36.1,77l0.1-0.1h0.1l0.1-0.101c0.1,0,0.2,0,0.2,0
	c0.1-0.1,0.1,0,0.1,0c0.2-0.1,0.4-0.3,0.6-0.399h0.1l0.1-0.101h0.1l0.1-0.1c0.1,0,0.2,0,0.2,0c0.1-0.101,0.4-0.101,0.4-0.4
	C38.2,75.3,37.3,75,37.1,74.9z"/>
</svg>
